<?xml version="1.0" encoding="UTF-8"?>
<!DOCTYPE svg PUBLIC "-//W3C//DTD SVG 1.1//EN" "http://www.w3.org/Graphics/SVG/1.1/DTD/svg11.dtd">
<!-- Creator: CorelDRAW X7 -->
<svg xmlns="http://www.w3.org/2000/svg" xml:space="preserve" width="2.59242in" height="1.55734in" version="1.1" style="shape-rendering:geometricPrecision; text-rendering:geometricPrecision; image-rendering:optimizeQuality; fill-rule:evenodd; clip-rule:evenodd"
viewBox="0 0 387 233"
 xmlns:xlink="http://www.w3.org/1999/xlink">
 <defs>
  <style type="text/css">
   <![CDATA[
    .fil0 {fill:#FEFEFE}
   ]]>
  </style>
 </defs>
 <g id="Layer_x0020_1">
  <metadata id="CorelCorpID_0Corel-Layer"/>
  <g id="_1581744872">
   <path class="fil0" d="M18 103c0,-12 3,-24 7,-33 3,-9 8,-19 15,-25 18,-21 35,-27 63,-27 11,0 23,4 30,8 25,12 45,39 45,68l0 13 -160 0 0 -4zm-18 -2l0 26c0,54 37,96 81,104 48,8 92,-18 109,-62 2,-3 2,-5 4,-8 -30,0 -12,3 -42,32 -21,22 -57,27 -86,14 -26,-10 -48,-41 -48,-73l0 -8 179 0c0,-26 2,-47 -9,-70 -16,-32 -49,-56 -85,-56 -35,0 -53,8 -76,31 -4,4 -7,9 -10,13 -10,16 -17,36 -17,57z"/>
   <path class="fil0" d="M279 116l-64 84c-3,5 -6,9 -10,14 -2,3 -10,12 -11,15 26,0 25,-3 44,-29 4,-4 7,-9 11,-13 2,-3 40,-52 41,-55l2 0c0,2 3,4 4,7l26 34c4,5 7,9 11,14 3,4 6,8 10,13 19,26 18,29 44,29 -1,-3 -3,-5 -5,-7l-37 -49c-3,-5 -7,-9 -10,-14 -4,-5 -7,-9 -11,-14 -4,-5 -7,-10 -11,-14 -3,-5 -7,-10 -11,-15l71 -93c2,-3 3,-4 5,-7 4,-4 5,-4 5,-8 -20,0 -22,2 -32,14l-60 79c-2,-2 -8,-10 -10,-13l-30 -40c-7,-8 -23,-33 -32,-37 -5,-3 -12,-3 -20,-3 0,4 0,2 4,8l56 73c3,5 6,9 10,13l10 14z"/>
  </g>
 </g>
</svg>
