<?xml version="1.0" encoding="UTF-8"?>
<!DOCTYPE svg PUBLIC "-//W3C//DTD SVG 1.1//EN" "http://www.w3.org/Graphics/SVG/1.1/DTD/svg11.dtd">
<!-- Creator: CorelDRAW X7 -->
<svg xmlns="http://www.w3.org/2000/svg" xml:space="preserve" width="2.13427in" height="2.13427in" version="1.1" style="shape-rendering:geometricPrecision; text-rendering:geometricPrecision; image-rendering:optimizeQuality; fill-rule:evenodd; clip-rule:evenodd"
viewBox="0 0 249 249"
 xmlns:xlink="http://www.w3.org/1999/xlink">
 <defs>
  <style type="text/css">
   <![CDATA[
    .fil0 {fill:#F7DF1E}
   ]]>
  </style>
 </defs>
 <g id="Layer_x0020_1">
  <metadata id="CorelCorpID_0Corel-Layer"/>
  <path class="fil0" d="M66 208c5,-4 13,-8 18,-11 5,6 8,15 21,11 9,-3 7,-17 7,-27 0,-22 0,-44 0,-66l24 -1c0,20 3,86 -4,100 -6,11 -18,17 -35,16 -14,-1 -29,-11 -31,-22zm139 -65c-3,-4 -4,-7 -9,-9 -15,-5 -29,13 -5,23 17,7 35,14 38,33 8,52 -70,48 -81,15l19 -10c2,2 4,5 8,9 13,10 38,3 30,-12 -5,-11 -30,-11 -44,-28 -10,-14 -8,-39 12,-48 9,-4 21,-4 30,-1 8,2 17,9 20,17 -3,2 -15,10 -18,11zm-205 106l249 0 0 -249 -249 0 0 249z"/>
 </g>
</svg>
