<?xml version="1.0" encoding="UTF-8"?>
<!DOCTYPE svg PUBLIC "-//W3C//DTD SVG 1.1//EN" "http://www.w3.org/Graphics/SVG/1.1/DTD/svg11.dtd">
<!-- Creator: CorelDRAW X7 -->
<svg xmlns="http://www.w3.org/2000/svg" xml:space="preserve" width="2.13427in" height="2.13427in" version="1.1" style="shape-rendering:geometricPrecision; text-rendering:geometricPrecision; image-rendering:optimizeQuality; fill-rule:evenodd; clip-rule:evenodd"
viewBox="0 0 150 150"
 xmlns:xlink="http://www.w3.org/1999/xlink">
 <defs>
  <style type="text/css">
   <![CDATA[
    .fil0 {fill:#FEFEFE}
   ]]>
  </style>
 </defs>
 <g id="Layer_x0020_1">
  <metadata id="CorelCorpID_0Corel-Layer"/>
  <g id="_896006504">
   <g>
    <path class="fil0" d="M70 0c0,0 -1,0 -2,0 -21,2 -41,14 -54,31 -7,10 -12,21 -13,33 -1,4 -1,6 -1,11 0,6 0,7 1,11 4,28 24,52 51,61 5,1 10,3 16,3 2,0 12,0 14,0 11,-1 19,-3 27,-8 2,0 2,-1 2,-1 0,0 -6,-7 -12,-16l-12 -16 -15 -23c-9,-12 -16,-22 -16,-22 0,0 0,10 0,22 0,21 0,22 0,23 -1,0 -1,1 -1,1 -1,0 -1,0 -4,0l-2 0 -1 0c0,-1 -1,-1 -1,-1l0 -1 0 -29 0 -30 0 0c1,-1 1,-1 2,-1 0,-1 0,-1 3,-1 3,0 3,0 4,1 0,0 9,13 18,28 10,14 23,35 30,45l12 18 1 -1c5,-3 11,-8 15,-13 10,-11 16,-25 18,-39 0,-4 0,-5 0,-11 0,-5 0,-7 0,-11 -4,-28 -24,-52 -52,-60 -5,-2 -10,-3 -15,-4 -2,0 -12,0 -13,0l0 0zm31 46c1,0 1,1 2,1 0,1 0,9 0,27l0 27 -5 -7 -5 -8 0 -19c0,-12 0,-19 0,-20 1,0 1,-1 2,-1 0,-1 1,-1 3,-1 2,0 3,0 3,1z"/>
   </g>
  </g>
 </g>
</svg>
