<?xml version="1.0" encoding="UTF-8"?>
<!DOCTYPE svg PUBLIC "-//W3C//DTD SVG 1.1//EN" "http://www.w3.org/Graphics/SVG/1.1/DTD/svg11.dtd">
<!-- Creator: CorelDRAW X7 -->
<svg xmlns="http://www.w3.org/2000/svg" xml:space="preserve" width="1.88397in" height="2.13071in" version="1.1" style="shape-rendering:geometricPrecision; text-rendering:geometricPrecision; image-rendering:optimizeQuality; fill-rule:evenodd; clip-rule:evenodd"
viewBox="0 0 465 526"
 xmlns:xlink="http://www.w3.org/1999/xlink">
 <defs>
  <style type="text/css">
   <![CDATA[
    .fil0 {fill:#8CC84B}
   ]]>
  </style>
 </defs>
 <g id="Layer_x0020_1">
  <metadata id="CorelCorpID_0Corel-Layer"/>
  <g id="_780830064">
   <path class="fil0" d="M0 178c0,29 -2,189 3,209 2,12 10,17 19,23 19,12 33,20 53,30 20,10 40,17 65,6 10,-4 17,-10 23,-19 6,-9 8,-19 8,-34l0 -111c0,-40 -2,-76 -2,-116 -10,0 -22,-3 -31,-3l0 122c0,22 0,92 -4,111 -10,44 -67,-1 -99,-18 0,-11 1,-17 1,-28l0 -87c0,-21 2,-37 2,-58 0,-19 0,-39 0,-59 5,-1 7,-3 12,-6 4,-2 8,-4 12,-7l122 -69c5,-3 46,-27 50,-27 7,0 116,65 145,82l25 14c5,3 20,12 24,13l0 234 -158 90c-6,3 -12,6 -18,10 -20,11 -16,11 -37,1 -42,-21 -25,-25 -54,-12 -5,2 -15,6 -18,9 3,4 16,11 21,14 16,10 54,34 70,34 11,0 25,-8 33,-12l160 -95c7,-4 38,-22 38,-30l0 -252c0,-10 -69,-49 -86,-60 -22,-13 -124,-70 -143,-77 -6,-2 -24,9 -33,13 -3,2 -5,3 -8,4l-23 13c-3,2 -5,3 -8,5l-40 22c-15,9 -113,61 -119,76 -4,7 -5,34 -5,45z"/>
   <path class="fil0" d="M192 221c0,43 36,57 72,63 22,3 65,8 84,16 9,4 14,7 14,19 0,36 -47,34 -74,34 -22,0 -50,-9 -59,-30 -7,-17 2,-18 -24,-18 -16,0 -19,1 -19,10 0,30 15,47 34,59 9,5 21,10 33,13 19,4 17,2 31,3 6,0 6,1 11,1l42 -3c82,-14 87,-89 51,-116 -44,-32 -150,-20 -150,-51 0,-13 6,-20 14,-24 19,-11 74,-11 92,5 16,15 8,32 30,32 29,0 27,-3 24,-21 -2,-13 -10,-26 -18,-34l-1 -1c-17,-17 -39,-26 -65,-26 -35,1 -83,-5 -109,32 -7,10 -13,21 -13,37z"/>
  </g>
 </g>
</svg>
