<?xml version="1.0" encoding="UTF-8"?>
<!DOCTYPE svg PUBLIC "-//W3C//DTD SVG 1.1//EN" "http://www.w3.org/Graphics/SVG/1.1/DTD/svg11.dtd">
<!-- Creator: CorelDRAW X7 -->
<svg xmlns="http://www.w3.org/2000/svg" xml:space="preserve" width="1.79164in" height="2.13044in" version="1.1" style="shape-rendering:geometricPrecision; text-rendering:geometricPrecision; image-rendering:optimizeQuality; fill-rule:evenodd; clip-rule:evenodd"
viewBox="0 0 256 305"
 xmlns:xlink="http://www.w3.org/1999/xlink">
 <defs>
  <style type="text/css">
   <![CDATA[
    .fil0 {fill:#FEFEFE}
   ]]>
  </style>
 </defs>
 <g id="Layer_x0020_1">
  <metadata id="CorelCorpID_0Corel-Layer"/>
  <g id="_896000480">
   <path class="fil0" d="M227 242l-137 40c-4,1 -8,-2 -7,-6l49 -235c1,-4 7,-5 9,-1l90 193c2,3 0,7 -4,9l0 0zm24 -10l-17 -36 -88 -186 0 0c-3,-6 -8,-10 -14,-10 -7,0 -13,3 -16,8l-113 184c-2,3 -3,6 -3,9 0,3 1,7 3,9l55 87c4,5 9,8 15,8 2,0 4,-1 5,-1l162 -48c1,-2 1,-4 1,-7 0,-2 0,-5 -1,-7l11 -10z"/>
   <path class="fil0" d="M239 225l5 -7c0,0 10,19 12,25 2,5 -3,10 -21,15 -19,4 -8,-8 -4,-11 4,-4 8,-22 8,-22z"/>
  </g>
 </g>
</svg>
