<?xml version="1.0" encoding="UTF-8"?>
<!DOCTYPE svg PUBLIC "-//W3C//DTD SVG 1.1//EN" "http://www.w3.org/Graphics/SVG/1.1/DTD/svg11.dtd">
<!-- Creator: CorelDRAW X7 -->
<svg xmlns="http://www.w3.org/2000/svg" xml:space="preserve" width="3.0769in" height="1.84991in" version="1.1" style="shape-rendering:geometricPrecision; text-rendering:geometricPrecision; image-rendering:optimizeQuality; fill-rule:evenodd; clip-rule:evenodd"
viewBox="0 0 375 226"
 xmlns:xlink="http://www.w3.org/1999/xlink">
 <defs>
  <style type="text/css">
   <![CDATA[
    .fil0 {fill:#38BDF8}
   ]]>
  </style>
 </defs>
 <g id="Layer_x0020_1">
  <metadata id="CorelCorpID_0Corel-Layer"/>
  <g id="_781858880">
   <path class="fil0" d="M0 187l4 -5c7,-9 18,-18 29,-22 14,-4 25,-5 39,2 4,2 11,6 14,9 5,4 8,5 13,10l6 6c2,2 11,12 13,13l5 4c9,7 20,12 31,16 8,3 21,5 29,5 2,0 3,1 6,1l11 -1c1,0 3,0 5,-1 2,0 3,0 5,0 4,-1 10,-3 14,-4 8,-2 16,-7 23,-12l3 -3c7,-5 16,-17 20,-25 3,-4 5,-8 6,-12l3 -9c1,-1 2,-3 2,-4l1 -5 -4 5c-1,1 -1,1 -2,2 -4,5 -8,8 -14,12 -16,11 -33,13 -51,7 -9,-4 -15,-7 -21,-14 -2,-2 -4,-4 -6,-6 -1,-1 -2,-2 -3,-3l-3 -3c-3,-3 -7,-7 -10,-10l-8 -7c-1,0 -2,-1 -3,-2 -15,-11 -38,-19 -57,-19 -3,0 -4,0 -6,0 -2,0 -3,0 -6,0 -5,0 -15,2 -20,3 -13,3 -19,6 -29,12 -3,1 -8,5 -10,7 -5,4 -8,7 -11,12 -8,10 -12,19 -16,31 0,2 -2,8 -2,10z"/>
   <path class="fil0" d="M93 75c1,-1 2,-2 3,-3 0,0 0,-1 0,-1l3 -3c0,-1 0,-1 1,-1l5 -5c9,-9 24,-17 38,-17 9,0 15,1 22,5 5,2 10,5 15,8 3,3 6,6 9,8 2,2 13,13 15,15 2,2 4,4 6,5l3 3c0,0 0,0 0,0 0,0 0,0 0,0l3 3c5,4 11,7 16,10 1,0 2,0 2,1 4,2 8,3 13,5 8,2 20,5 30,5 2,0 3,0 5,0 8,0 18,-1 26,-3 6,-1 12,-3 18,-5 6,-3 12,-7 17,-12 1,0 1,-1 2,-1l4 -5c3,-2 6,-6 8,-9 2,-2 3,-5 5,-7 1,-3 3,-5 4,-8 3,-5 9,-20 9,-25 0,0 0,0 -1,1l-2 3c-4,5 -10,11 -16,15 -1,0 -1,0 -2,1 -3,2 -7,4 -11,6 -16,6 -32,3 -48,-4 -4,-3 -7,-6 -11,-9l-13 -14c-3,-2 -6,-6 -9,-8 -2,-2 -4,-4 -6,-6 -5,-4 -11,-8 -17,-11 -4,-2 -8,-4 -12,-6 -2,0 -3,-1 -5,-1 -6,-2 -12,-3 -19,-4 -7,-1 -14,-1 -22,-1l-10 1c-4,1 -7,1 -10,2 -6,1 -12,3 -18,6 -2,1 -5,2 -7,3 -4,3 -8,5 -11,7 -2,2 -4,4 -6,6l-8 9c-4,6 -8,12 -11,18 0,2 -1,3 -2,5 -1,4 -4,13 -5,18z"/>
  </g>
 </g>
</svg>
