<?xml version="1.0" encoding="UTF-8"?>
<!DOCTYPE svg PUBLIC "-//W3C//DTD SVG 1.1//EN" "http://www.w3.org/Graphics/SVG/1.1/DTD/svg11.dtd">
<!-- Creator: CorelDRAW X7 -->
<svg xmlns="http://www.w3.org/2000/svg" xml:space="preserve" width="2.13427in" height="2.13427in" version="1.1" style="shape-rendering:geometricPrecision; text-rendering:geometricPrecision; image-rendering:optimizeQuality; fill-rule:evenodd; clip-rule:evenodd"
viewBox="0 0 350 350"
 xmlns:xlink="http://www.w3.org/1999/xlink">
 <defs>
  <style type="text/css">
   <![CDATA[
    .fil0 {fill:#3178C6}
   ]]>
  </style>
 </defs>
 <g id="Layer_x0020_1">
  <metadata id="CorelCorpID_0Corel-Layer"/>
  <path class="fil0" d="M0 350l350 0 0 -350 -350 0 0 350zm215 -51c-1,22 -6,34 13,39 45,11 108,-3 92,-57 -9,-31 -45,-30 -62,-47 -15,-14 2,-42 57,-17l0 -32c-98,-26 -118,44 -88,72 13,13 57,22 57,41 0,21 -38,21 -69,1zm-139 -88l44 0 1 129 35 -1 0 -127 45 -1 -1 -28 -124 0 0 28z"/>
 </g>
</svg>
